<svg xmlns="http://www.w3.org/2000/svg" xmlns:xlink="http://www.w3.org/1999/xlink" fill="none" version="1.1" width="57.6015625" height="57.5999755859375" viewBox="0 0 57.6015625 57.5999755859375"><defs><filter id="master_svg0_58_19247" filterUnits="objectBoundingBox" color-interpolation-filters="sRGB" x="-0.14285714285714285" y="-0.07143177319300249" width="1.2857142857142858" height="1.28572709277201"><feFlood flood-opacity="0" result="BackgroundImageFix"/><feColorMatrix in="SourceAlpha" type="matrix" values="0 0 0 0 0 0 0 0 0 0 0 0 0 0 0 0 0 0 127 0"/><feOffset dy="2" dx="0"/><feGaussianBlur stdDeviation="1"/><feColorMatrix type="matrix" values="0 0 0 0 0 0 0 0 0 0.18759919703006744 0 0 0 0 0.363095223903656 0 0 0 0.30000001192092896 0"/><feBlend mode="normal" in2="BackgroundImageFix" result="effect1_dropShadow"/><feBlend mode="normal" in="SourceGraphic" in2="effect1_dropShadow" result="shape"/></filter></defs><rect x="3" y="2.9312744140625" width="51.20000076293945" height="51.20000076293945" rx="1.600000023841858" fill="#FF5C57" fill-opacity="0.699999988079071"/><path d="M36.466349,41.0634364140625L21.5336838,41.0634364140625C21.0702634,41.1578964140625,20.659976999999998,41.4247454140625,20.3857355,41.8100684140625L20.3857355,42.9300194140625L37.614295999999996,42.9300194140625L37.614295999999996,41.8100684140625C37.614295999999996,41.1878754140625,37.062099,41.0634364140625,36.469458,41.0634364140625L36.466349,41.0634364140625ZM39.768643999999995,14.9312744140625L18.2313879,14.9312744140625C16.4112327,14.9678524770625,14.965066917,16.4725054140625,15.00064355234,18.2926795140625L15.00064355234,33.9735334140625C14.969399219,35.791225414062495,16.4138324,37.2919864140625,18.2313879,37.3302704140625L26.200142,37.3302704140625L26.200142,38.2635614140625C26.135936,38.8033714140625,26.593625,39.2610604140625,27.133432,39.1968514140625L30.8666,39.1968514140625C31.3967,39.2340884140625,31.837126,38.7936614140625,31.799889,38.2635614140625L31.799889,37.3302704140625L39.767089999999996,37.3302704140625C41.585997,37.2945274140625,43.032347,35.7924954140625,42.999387999999996,33.9735334140625L42.999387999999996,18.2926795140625C43.034099999999995,16.4728438140625,41.588426999999996,14.9687020850625,39.768643999999995,14.9312744140625ZM17.800518,32.663812414062505C17.2611737,32.726682414062495,16.8043573,32.2698674140625,16.8672265,31.7305224140625L16.8672265,18.6644406140625C17.1498275,17.7763157140625,17.8456843,17.0804586140625,18.7338095,16.7978573140625L39.266224,16.7978573140625C40.273201,16.8534103140625,41.077253,17.6574631140625,41.132809,18.6644406140625L41.132809,31.7305204140625C41.195675,32.2698654140625,40.738861,32.726678414062505,40.199516,32.663810414062496L17.800518,32.663812414062505ZM39.767089999999996,36.2523194140625C39.119877,36.277463414062495,38.577051,35.7685794140625,38.560413,35.121097414062504C38.543776,34.4736114140625,39.059746000000004,33.9375194140625,39.707392,33.9293884140625C40.355036,33.921259414062504,40.884305999999995,34.444229414062505,40.883926,35.0919284140625C40.894348,35.7201344140625,40.395235,36.2387084140625,39.767089999999996,36.2523194140625ZM35.281069,29.241744414062502L29.794869,19.7532801140625C29.631783,19.4632835140625,29.324947,19.2838125140625,28.992238999999998,19.2838125140625C28.659531,19.2838125140625,28.352695,19.4632835140625,28.189609,19.7532801140625L22.7002988,29.241744414062502C22.5354843,29.531012414062502,22.5354843,29.8857654140625,22.7002988,30.1750344140625C22.813252,30.4875514140625,23.076663,30.721694414062497,23.4002686,30.797227414062498L34.599768,30.797227414062498C34.924234,30.7273864140625,35.187201,30.4904804140625,35.290403,30.1750344140625C35.456526,29.885199414062498,35.452957,29.5281974140625,35.281069,29.241744414062502ZM29.000017,29.863937414062498C28.484575,29.8639394140625,28.066724999999998,29.4460884140625,28.066724999999998,28.9306464140625C28.066727,28.4152054140625,28.484575,27.9973564140625,29.000017,27.9973564140625C29.515459,27.9973574140625,29.93331,28.4152054140625,29.933306,28.9306464140625C29.933311,29.4460874140625,29.515461000000002,29.8639394140625,29.000017,29.863937414062498ZM29.933306,26.1307714140625C29.93331,26.6462134140625,29.515459,27.0640644140625,29.000017,27.0640644140625C28.484572999999997,27.0640644140625,28.066724999999998,26.6462144140625,28.066724,26.1307714140625L28.066724,23.3308973140625C28.066724999999998,22.815455414062498,28.484572999999997,22.3976059140625,29.000017,22.3976059140625C29.515459,22.3976059140625,29.93331,22.815455414062498,29.933306,23.3308973140625L29.933306,26.1307714140625Z" fill="#FFE7D3" fill-opacity="1" style="mix-blend-mode:passthrough" filter="url(#master_svg0_58_19247)"/></svg>