<svg xmlns="http://www.w3.org/2000/svg" xmlns:xlink="http://www.w3.org/1999/xlink" fill="none" version="1.1" width="57.6015625" height="57.5999755859375" viewBox="0 0 57.6015625 57.5999755859375"><defs><filter id="master_svg0_58_28150" filterUnits="objectBoundingBox" color-interpolation-filters="sRGB" x="-0.21586404412406518" y="-0.0625" width="1.4317280882481302" height="1.25"><feFlood flood-opacity="0" result="BackgroundImageFix"/><feColorMatrix in="SourceAlpha" type="matrix" values="0 0 0 0 0 0 0 0 0 0 0 0 0 0 0 0 0 0 127 0"/><feOffset dy="2" dx="0"/><feGaussianBlur stdDeviation="1"/><feColorMatrix type="matrix" values="0 0 0 0 0 0 0 0 0 0.18759919703006744 0 0 0 0 0.363095223903656 0 0 0 0.30000001192092896 0"/><feBlend mode="normal" in2="BackgroundImageFix" result="effect1_dropShadow"/><feBlend mode="normal" in="SourceGraphic" in2="effect1_dropShadow" result="shape"/></filter></defs><rect x="3" y="2.9312744140625" width="51.20000076293945" height="51.20000076293945" rx="1.600000023841858" fill="#FF5C57" fill-opacity="0.699999988079071"/><path d="M27.4408417,44.9312744140625C23.3381052,44.9312744140625,20,41.7034854140625,20,37.735485414062495C20.00066995621,36.447908414062496,20.35613728,35.1854174140625,21.0273685,34.0866434140625C21.5775385,33.1881164140625,22.3148251,32.4186614140625,23.1890526,31.8306424140625L23.1890526,17.043274414062502C23.1890526,14.775484914062499,25.0964212,12.9312744140625,27.4416838,12.9312744140625C29.7861052,12.9312744140625,31.692632,14.775484914062499,31.692632,17.042432314062502L31.692632,31.8298014140625C32.567168,32.4180684140625,33.304736,33.1878034140625,33.855159,34.0866434140625C34.526229,35.1854874140625,34.881682,36.447933414062504,34.882526999999996,37.735485414062495C34.882526999999996,41.7034854140625,31.544423000000002,44.9312744140625,27.4408417,44.9312744140625ZM27.4408417,14.9868526140625C26.268631,14.9868526140625,25.3153677,15.909800014062501,25.3153677,17.0424318140625L25.3153677,32.9860114140625L24.7848415,33.2832754140625C23.1444206,34.2003284140625,22.1263151,35.906433414062505,22.1263151,37.735485414062495C22.1263151,40.5691704140625,24.5103149,42.8748534140625,27.4408407,42.8748534140625C30.371366000000002,42.8748534140625,32.756209,40.5691684140625,32.756209,37.735485414062495C32.756209,35.906433414062505,31.737262,34.2003274140625,30.097684,33.2832754140625L29.5671568,32.9860114140625L29.5671568,17.042432314062502C29.5671568,15.9089587140625,28.6138935,14.9876954140625,27.4408407,14.9876954140625L27.4408417,14.9868526140625ZM37.477551,21.1199388140625L37.478390000000005,21.1199388140625C38.059055,21.1194992140625,38.530181999999996,20.6632471140625,38.530181999999996,20.1018333140625C38.530181999999996,19.5393066140625,38.058600999999996,19.0828857140625,37.477551,19.0828857140625L33.756286,19.0828857140625C33.175233,19.0828857140625,32.703654,19.5393071140625,32.703654,20.1009912140625C32.703654,20.6635179140625,33.175233,21.1199388140625,33.756286,21.1199388140625L37.477551,21.1199388140625ZM26.3828125,33.9314384140625L26.3828125,22.6997280140625C26.3828125,22.132148714062502,26.8586016,21.6723595140625,27.445549,21.6723595140625C28.0333385,21.6723595140625,28.5091276,22.132148714062502,28.5091276,22.6997280140625L28.5091276,33.934734414062504C30.237955,34.390052414062495,31.512871,35.9214894140625,31.512871,37.7355234140625C31.512871,39.9081554140625,29.685503,41.6740494140625,27.4396086,41.6740494140625C25.1945562,41.6740494140625,23.3671875,39.9073124140625,23.3671875,37.7355234140625C23.3671875,35.916458414062504,24.6481915,34.3825184140625,26.3828125,33.9314384140625ZM37.477551,24.0630974140625L37.478390000000005,24.0630974140625C38.059055,24.0626574140625,38.530181999999996,23.6064054140625,38.530181999999996,23.0449914140625C38.530181999999996,22.4824648140625,38.058600999999996,22.026886014062498,37.477551,22.026886014062498L33.756286,22.026886014062498C33.175233,22.026886014062498,32.703654,22.4824648140625,32.703654,23.044149414062503C32.703654,23.6066764140625,33.175233,24.0630974140625,33.756286,24.0630974140625L37.477551,24.0630974140625ZM37.477551,27.0062554140625L37.478390000000005,27.0062554140625C38.059055,27.0058154140625,38.530181999999996,26.5495634140625,38.530181999999996,25.988149414062498C38.530181999999996,25.4256234140625,38.058600999999996,24.9700444140625,37.477551,24.9700444140625L33.756286,24.9700444140625C33.175233,24.9700444140625,32.703654,25.4256234140625,32.703654,25.9873074140625C32.703654,26.549834414062502,33.175233,27.0062554140625,33.756286,27.0062554140625L37.477551,27.0062554140625ZM37.477551,29.9494134140625L37.478390000000005,29.9494134140625C38.059055,29.9489724140625,38.530181999999996,29.4927194140625,38.530181999999996,28.9313064140625C38.530181999999996,28.3687814140625,38.058600999999996,27.9132024140625,37.477551,27.9132024140625L33.756286,27.9132024140625C33.175233,27.9132024140625,32.703654,28.3687814140625,32.703654,28.9304654140625C32.703654,29.4929924140625,33.175233,29.9494134140625,33.756286,29.9494134140625L37.477551,29.9494134140625Z" fill-rule="evenodd" fill="#FFE7D3" fill-opacity="1" style="mix-blend-mode:passthrough" filter="url(#master_svg0_58_28150)"/></svg>